<svg width="44" height="44" viewBox="0 0 44 44" fill="none" xmlns="http://www.w3.org/2000/svg">
<rect width="44" height="44" rx="22" fill="#D21E6A"/>
<path fill-rule="evenodd" clip-rule="evenodd" d="M22.0001 17.2849L21.3483 19.2193C21.084 20.0024 20.1609 20.2719 19.6148 19.6792C19.4989 19.709 19.378 19.7126 19.2606 19.6897C19.1433 19.6669 19.0323 19.6182 18.9356 19.5471C18.8389 19.4759 18.7589 19.3841 18.7012 19.2782C18.6434 19.1722 18.6095 19.0547 18.6016 18.9339C17.8771 18.5911 17.8435 17.6186 18.499 17.1224L20.115 15.8978L18.0966 15.8691C17.2787 15.857 16.7411 15.0508 17.1282 14.3422C17.0646 14.2397 17.024 14.1244 17.0093 14.0043C16.9946 13.8842 17.0061 13.7624 17.043 13.6473C17.08 13.5322 17.1414 13.4267 17.223 13.3384C17.3046 13.25 17.4044 13.1808 17.5153 13.1358C17.6135 12.3319 18.5165 11.9996 19.1851 12.477L20.8347 13.6547L20.2374 11.7022C19.9974 10.9134 20.5831 10.1409 21.3734 10.2981C21.4499 10.2051 21.5457 10.1303 21.654 10.0789C21.7623 10.0276 21.8804 10.001 21.9999 10.001C22.1195 10.001 22.2376 10.0276 22.3459 10.0789C22.4542 10.1303 22.55 10.2051 22.6265 10.2981C23.416 10.1409 24.0021 10.9134 23.7625 11.7022L23.1652 13.6547L24.8148 12.4766C25.4834 11.9993 26.386 12.3315 26.4845 13.1358C26.5955 13.1807 26.6953 13.2498 26.777 13.3381C26.8586 13.4265 26.9201 13.5319 26.957 13.647C26.9939 13.7621 27.0054 13.884 26.9907 14.004C26.9759 14.1241 26.9353 14.2394 26.8716 14.3418C27.2588 15.0508 26.7223 15.8566 25.9033 15.8687L23.8853 15.8978L25.5013 17.122C26.156 17.6179 26.1236 18.5907 25.3982 18.9335C25.3904 19.0543 25.3564 19.1718 25.2987 19.2778C25.241 19.3837 25.1609 19.4755 25.0643 19.5467C24.9676 19.6178 24.8566 19.6665 24.7392 19.6894C24.6219 19.7122 24.501 19.7086 24.3851 19.6789C23.8397 20.2711 22.9158 20.0024 22.6515 19.2185L22.0001 17.2849Z" fill="#FD8F9F"/>
<path fill-rule="evenodd" clip-rule="evenodd" d="M22.0002 17.2843V10H22.0357C22.1493 10.0049 22.2605 10.0339 22.3624 10.085C22.4642 10.1361 22.5543 10.2082 22.627 10.2967C23.405 10.1455 24.0045 10.9075 23.7618 11.7008L23.1646 13.6533L24.8142 12.4752C25.4827 11.9979 26.385 12.3301 26.4839 13.1344C26.5949 13.1793 26.6947 13.2484 26.7763 13.3367C26.858 13.4251 26.9195 13.5305 26.9564 13.6456C26.9933 13.7607 27.0048 13.8826 26.9901 14.0026C26.9753 14.1227 26.9347 14.238 26.871 14.3404C27.2585 15.0494 26.7217 15.8552 25.9027 15.8673L23.8846 15.8964L25.5007 17.1206C26.1554 17.6165 26.1226 18.5893 25.3976 18.9321C25.3898 19.0529 25.3558 19.1704 25.2981 19.2764C25.2404 19.3823 25.1603 19.4741 25.0636 19.5453C24.9669 19.6164 24.856 19.6651 24.7386 19.688C24.6212 19.7108 24.5003 19.7072 24.3845 19.6775C23.8391 20.2701 22.9152 20.001 22.6509 19.2171L22.0002 17.2843Z" fill="#FD697F"/>
<path d="M22.753 16.0267C23.1692 15.6053 23.1692 14.9221 22.753 14.5007C22.3368 14.0793 21.662 14.0793 21.2458 14.5007C20.8296 14.9221 20.8296 15.6053 21.2458 16.0267C21.662 16.4481 22.3368 16.4481 22.753 16.0267Z" fill="#FFDA44"/>
<path fill-rule="evenodd" clip-rule="evenodd" d="M21.9995 14.1841C22.2788 14.1894 22.5448 14.3054 22.7405 14.5072C22.9361 14.709 23.0457 14.9805 23.0457 15.2633C23.0457 15.5461 22.9361 15.8176 22.7405 16.0194C22.5448 16.2212 22.2788 16.3373 21.9995 16.3426V14.1841Z" fill="#FFB655"/>
<path d="M12.4062 26.2812L12.2148 26.082C12.1497 26.0247 12.0885 25.9779 12.0312 25.9414C11.9766 25.9049 11.9219 25.8763 11.8672 25.8555C11.8125 25.832 11.7565 25.8164 11.6992 25.8086C11.6445 25.8008 11.5833 25.7969 11.5156 25.7969C11.4922 25.7969 11.4779 25.7995 11.4727 25.8047C11.4023 25.8047 11.3464 25.8047 11.3047 25.8047C11.2656 25.8047 11.2357 25.8047 11.2148 25.8047C11.194 25.8047 11.1797 25.806 11.1719 25.8086C11.1667 25.8086 11.1641 25.8086 11.1641 25.8086H10.8633C10.819 25.8216 10.7734 25.8294 10.7266 25.832C10.6797 25.8346 10.6341 25.8359 10.5898 25.8359C10.4909 25.8359 10.4154 25.8372 10.3633 25.8398C10.3138 25.8424 10.2734 25.8529 10.2422 25.8711C10.2135 25.8815 10.1966 25.8958 10.1914 25.9141C10.1862 25.9297 10.1836 25.944 10.1836 25.957C10.1836 26.0117 10.1758 26.0521 10.1602 26.0781C10.1471 26.1016 10.1185 26.1276 10.0742 26.1562C10.0664 26.1615 10.0599 26.1745 10.0547 26.1953C10.0521 26.2161 10.0482 26.2396 10.043 26.2656C10.0404 26.2917 10.0378 26.3177 10.0352 26.3438C10.0352 26.3698 10.0352 26.3906 10.0352 26.4062C10.0352 26.4661 10.0443 26.5234 10.0625 26.5781C10.0807 26.6328 10.0898 26.694 10.0898 26.7617L10.0547 27.0078C10.0547 27.0677 10.0677 27.1276 10.0938 27.1875C10.1224 27.2474 10.1367 27.3125 10.1367 27.3828L10.0742 27.9648C10.0742 27.9883 10.0846 28.0156 10.1055 28.0469C10.1263 28.0755 10.1432 28.0977 10.1562 28.1133C10.237 28.1237 10.319 28.1393 10.4023 28.1602C10.4857 28.1784 10.5677 28.1875 10.6484 28.1875C10.6667 28.1875 10.6823 28.1862 10.6953 28.1836C10.7109 28.1784 10.7253 28.1615 10.7383 28.1328C10.7669 28.1302 10.8008 28.1276 10.8398 28.125C10.8815 28.1224 10.9284 28.1211 10.9805 28.1211C11.0508 28.1211 11.1263 28.1211 11.207 28.1211C11.2878 28.1185 11.3672 28.1146 11.4453 28.1094C11.5234 28.1016 11.5951 28.0911 11.6602 28.0781C11.7253 28.0625 11.776 28.0404 11.8125 28.0117C11.849 27.9883 11.8763 27.9544 11.8945 27.9102C11.9154 27.8659 11.931 27.819 11.9414 27.7695C11.9518 27.7174 11.9609 27.6654 11.9688 27.6133C11.9766 27.5612 11.987 27.5143 12 27.4727C12.0156 27.4284 12.0365 27.3932 12.0625 27.3672C12.0911 27.3385 12.1315 27.3242 12.1836 27.3242C12.1992 27.3242 12.2135 27.3268 12.2266 27.332C12.2422 27.3372 12.2565 27.3542 12.2695 27.3828V27.5469C12.2695 27.6719 12.2565 27.7917 12.2305 27.9062C12.2174 27.9974 12.2044 28.0807 12.1914 28.1562C12.181 28.2292 12.1758 28.3034 12.1758 28.3789C12.1758 28.444 12.1849 28.5078 12.2031 28.5703C12.224 28.6302 12.2448 28.6901 12.2656 28.75C12.2891 28.8073 12.3099 28.8659 12.3281 28.9258C12.349 28.9857 12.3594 29.0469 12.3594 29.1094C12.3594 29.1484 12.3581 29.1784 12.3555 29.1992C12.3555 29.2174 12.3503 29.2292 12.3398 29.2344C12.3268 29.2552 12.3177 29.2708 12.3125 29.2812C12.3073 29.2917 12.293 29.2969 12.2695 29.2969C12.2305 29.2969 12.2005 29.2826 12.1797 29.2539C12.1615 29.2253 12.138 29.1966 12.1094 29.168L12.0547 29.0469C12.026 28.9844 11.9987 28.9245 11.9727 28.8672C11.9466 28.8099 11.9154 28.7565 11.8789 28.707C11.8451 28.6549 11.8047 28.6068 11.7578 28.5625C11.7135 28.5156 11.6589 28.474 11.5938 28.4375H11.418C11.3268 28.4375 11.2331 28.4362 11.1367 28.4336C11.0404 28.4284 10.957 28.4193 10.8867 28.4062L10.6484 28.3633C10.5807 28.3633 10.5065 28.375 10.4258 28.3984C10.3477 28.4219 10.2734 28.4349 10.2031 28.4375C10.1797 28.4661 10.1523 28.5026 10.1211 28.5469C10.0898 28.5885 10.0742 28.6341 10.0742 28.6836C10.1159 28.8763 10.151 29.0664 10.1797 29.2539C10.2083 29.4388 10.2227 29.625 10.2227 29.8125C10.2227 29.901 10.2201 29.9609 10.2148 29.9922C10.2122 30.0208 10.2083 30.0443 10.2031 30.0625C10.224 30.125 10.2526 30.181 10.2891 30.2305C10.3281 30.2773 10.3724 30.3203 10.4219 30.3594C10.4714 30.3958 10.5234 30.4297 10.5781 30.4609C10.6328 30.4922 10.6862 30.5208 10.7383 30.5469C10.7409 30.5469 10.7487 30.5547 10.7617 30.5703C10.7773 30.5859 10.7852 30.5964 10.7852 30.6016C10.7956 30.6068 10.819 30.612 10.8555 30.6172C10.8919 30.6198 10.9154 30.6211 10.9258 30.6211C10.9466 30.6211 10.9635 30.6211 10.9766 30.6211C10.9922 30.6211 11.0091 30.6185 11.0273 30.6133C11.0482 30.6107 11.0651 30.6094 11.0781 30.6094C11.0938 30.6094 11.1107 30.6094 11.1289 30.6094C11.1471 30.6094 11.1667 30.6094 11.1875 30.6094C11.2083 30.6094 11.2266 30.6107 11.2422 30.6133C11.2604 30.6185 11.2773 30.6211 11.293 30.6211C11.3112 30.6211 11.3281 30.6211 11.3438 30.6211C11.3568 30.6341 11.3724 30.6471 11.3906 30.6602C11.4115 30.6732 11.4297 30.6888 11.4453 30.707C11.4635 30.7253 11.4779 30.7448 11.4883 30.7656C11.5013 30.7865 11.5078 30.8099 11.5078 30.8359C11.5078 30.8646 11.5013 30.8945 11.4883 30.9258C11.4753 30.9544 11.457 30.9818 11.4336 31.0078C11.4128 31.0365 11.3893 31.0586 11.3633 31.0742C11.3372 31.0924 11.3112 31.1016 11.2852 31.1016H11.2773C11.2487 31.1068 11.2161 31.1094 11.1797 31.1094C11.1458 31.112 11.1159 31.1133 11.0898 31.1133C11.0534 31.1133 11.0182 31.112 10.9844 31.1094C10.9531 31.1094 10.9115 31.1068 10.8594 31.1016L10.7852 31.082C10.7409 31.0586 10.6914 31.0378 10.6367 31.0195C10.582 31.0013 10.5247 30.9857 10.4648 30.9727C10.4076 30.9596 10.349 30.9505 10.2891 30.9453C10.2318 30.9375 10.1784 30.9336 10.1289 30.9336C10.0742 30.9336 10.0273 30.9362 9.98828 30.9414C9.94922 30.944 9.89714 30.9544 9.83203 30.9727C9.77214 30.9831 9.70964 30.9909 9.64453 30.9961C9.58203 30.9987 9.52083 31 9.46094 31C9.39323 31 9.32943 30.9987 9.26953 30.9961C9.21224 30.9909 9.14974 30.9831 9.08203 30.9727C9.05078 30.9831 9.02083 31 8.99219 31.0234C8.96615 31.0469 8.93099 31.0638 8.88672 31.0742C8.86849 31.069 8.85156 31.0638 8.83594 31.0586C8.82292 31.056 8.80729 31.0547 8.78906 31.0547C8.77604 31.0599 8.75651 31.0625 8.73047 31.0625H8.58203C8.52214 31.0417 8.47266 31.0208 8.43359 31C8.39714 30.9792 8.36979 30.9388 8.35156 30.8789C8.35156 30.7956 8.39453 30.7253 8.48047 30.668C8.54297 30.6628 8.6237 30.6458 8.72266 30.6172C8.82422 30.5885 8.92188 30.5508 9.01562 30.5039C9.10938 30.457 9.1901 30.401 9.25781 30.3359C9.32812 30.2708 9.36328 30.1992 9.36328 30.1211C9.36328 29.9831 9.35938 29.8646 9.35156 29.7656C9.34635 29.6641 9.33854 29.5664 9.32812 29.4727C9.32031 29.3789 9.3125 29.2812 9.30469 29.1797C9.29948 29.0755 9.29688 28.9505 9.29688 28.8047C9.29688 28.7604 9.30078 28.7174 9.30859 28.6758C9.31901 28.6315 9.32812 28.5885 9.33594 28.5469C9.34635 28.5026 9.35547 28.4596 9.36328 28.418C9.3737 28.3737 9.37891 28.3294 9.37891 28.2852C9.37891 28.2773 9.3776 28.2669 9.375 28.2539C9.375 28.2409 9.375 28.2279 9.375 28.2148C9.375 28.1992 9.3737 28.1862 9.37109 28.1758C9.37109 28.1628 9.37109 28.1562 9.37109 28.1562L9.32422 27.9844V27.6836C9.32422 27.6393 9.31901 27.5951 9.30859 27.5508C9.29818 27.5065 9.28646 27.4622 9.27344 27.418C9.26302 27.3737 9.2526 27.3307 9.24219 27.2891C9.23438 27.2448 9.23047 27.2018 9.23047 27.1602C9.23047 27.1497 9.23177 27.1328 9.23438 27.1094C9.23958 27.0833 9.24479 27.0651 9.25 27.0547C9.26042 27.0026 9.26823 26.9505 9.27344 26.8984C9.28125 26.8438 9.28516 26.7891 9.28516 26.7344C9.28516 26.6823 9.28255 26.6315 9.27734 26.582C9.27214 26.5299 9.26302 26.4779 9.25 26.4258C9.25 26.3789 9.23828 26.3333 9.21484 26.2891C9.19401 26.2422 9.16536 26.1979 9.12891 26.1562C9.09505 26.1146 9.05729 26.0781 9.01562 26.0469C8.97396 26.013 8.9349 25.9883 8.89844 25.9727C8.85156 25.9544 8.78776 25.9427 8.70703 25.9375C8.6263 25.9323 8.54557 25.9232 8.46484 25.9102C8.38411 25.8945 8.3138 25.8698 8.25391 25.8359C8.19661 25.7995 8.16797 25.7409 8.16797 25.6602V25.6016C8.20964 25.5781 8.26042 25.5547 8.32031 25.5312C8.38281 25.5052 8.4362 25.4922 8.48047 25.4922H8.57422C8.61068 25.4922 8.64583 25.4961 8.67969 25.5039C8.71615 25.5117 8.74609 25.5299 8.76953 25.5586C8.8138 25.5664 8.85807 25.5729 8.90234 25.5781C8.94661 25.5833 8.99089 25.5859 9.03516 25.5859C9.07422 25.5859 9.11719 25.5833 9.16406 25.5781C9.21094 25.5729 9.25781 25.5664 9.30469 25.5586C9.31771 25.5378 9.32682 25.526 9.33203 25.5234C9.33984 25.5208 9.35286 25.5195 9.37109 25.5195C9.42578 25.5195 9.47917 25.5299 9.53125 25.5508C9.58333 25.5716 9.64323 25.582 9.71094 25.582H9.79688C9.82552 25.582 9.85547 25.582 9.88672 25.582C9.91797 25.5794 9.95182 25.5716 9.98828 25.5586C10.082 25.5742 10.1849 25.582 10.2969 25.582C10.401 25.582 10.5065 25.5742 10.6133 25.5586C10.7096 25.5247 10.8112 25.5078 10.918 25.5078C11.0273 25.5078 11.1406 25.5026 11.2578 25.4922C11.3177 25.487 11.3737 25.4831 11.4258 25.4805C11.4805 25.4753 11.5352 25.4727 11.5898 25.4727C11.6289 25.4727 11.6693 25.4753 11.7109 25.4805C11.7526 25.4831 11.7956 25.487 11.8398 25.4922C11.8503 25.4974 11.8633 25.5065 11.8789 25.5195C11.8971 25.5299 11.9141 25.5417 11.9297 25.5547C11.9479 25.5677 11.9648 25.5794 11.9805 25.5898C11.9961 25.5977 12.0078 25.6016 12.0156 25.6016C12.0391 25.6016 12.0586 25.5977 12.0742 25.5898C12.0924 25.582 12.1146 25.5716 12.1406 25.5586C12.1823 25.5482 12.2253 25.5417 12.2695 25.5391C12.3138 25.5339 12.3594 25.5312 12.4062 25.5312C12.487 25.5312 12.5677 25.5404 12.6484 25.5586C12.6536 25.5586 12.6654 25.5677 12.6836 25.5859C12.7044 25.6016 12.7253 25.6198 12.7461 25.6406C12.7695 25.6589 12.7904 25.6771 12.8086 25.6953C12.8268 25.7109 12.8372 25.7201 12.8398 25.7227V26.2812C12.8919 26.4089 12.918 26.5378 12.918 26.668C12.918 26.6992 12.9167 26.7318 12.9141 26.7656C12.9141 26.7969 12.9089 26.8268 12.8984 26.8555C12.8906 26.8841 12.8763 26.9076 12.8555 26.9258C12.8346 26.944 12.806 26.9531 12.7695 26.9531C12.7539 26.9349 12.7357 26.9128 12.7148 26.8867C12.694 26.8607 12.6719 26.8346 12.6484 26.8086C12.6276 26.7799 12.6068 26.7526 12.5859 26.7266C12.5677 26.7005 12.5521 26.6771 12.5391 26.6562C12.5391 26.651 12.5339 26.6367 12.5234 26.6133C12.513 26.5872 12.5013 26.5612 12.4883 26.5352C12.4753 26.5065 12.4622 26.4805 12.4492 26.457C12.4388 26.431 12.431 26.4141 12.4258 26.4062C12.4206 26.401 12.4154 26.3802 12.4102 26.3438C12.4076 26.3073 12.4062 26.2865 12.4062 26.2812ZM13.3008 31.0273C13.293 31.0273 13.2839 31.0273 13.2734 31.0273C13.263 31.0273 13.2513 31.0247 13.2383 31.0195H13.1562L13.1094 30.9805V30.7969L13.1992 30.6562C13.2227 30.6458 13.25 30.6406 13.2812 30.6406C13.3125 30.638 13.3294 30.6367 13.332 30.6367C13.3424 30.6367 13.3659 30.6354 13.4023 30.6328C13.4414 30.6276 13.4727 30.6198 13.4961 30.6094C13.556 30.6224 13.599 30.6289 13.625 30.6289C13.6562 30.6055 13.6862 30.5742 13.7148 30.5352C13.7435 30.4961 13.7682 30.4531 13.7891 30.4062C13.8125 30.3594 13.8294 30.3125 13.8398 30.2656C13.8529 30.2188 13.8594 30.1758 13.8594 30.1367V29.7031C13.8594 29.612 13.8594 29.5234 13.8594 29.4375C13.862 29.349 13.8672 29.2865 13.875 29.25C13.8672 29.1797 13.862 29.1107 13.8594 29.043C13.8568 28.9727 13.8529 28.9023 13.8477 28.832L13.8203 28.4258C13.8125 28.3034 13.806 28.181 13.8008 28.0586C13.7956 27.9362 13.793 27.8125 13.793 27.6875C13.793 27.6745 13.7943 27.6654 13.7969 27.6602C13.7995 27.6523 13.8112 27.6419 13.832 27.6289C13.8216 27.5872 13.8151 27.5495 13.8125 27.5156C13.8125 27.4818 13.8125 27.4453 13.8125 27.4062C13.8125 27.3698 13.8125 27.3333 13.8125 27.2969C13.8151 27.2578 13.8216 27.2174 13.832 27.1758C13.8112 27.1628 13.7943 27.1432 13.7812 27.1172C13.7708 27.0911 13.7656 27.056 13.7656 27.0117C13.7656 26.9779 13.776 26.9505 13.7969 26.9297C13.8177 26.9089 13.8281 26.8776 13.8281 26.8359C13.8281 26.7786 13.8268 26.7174 13.8242 26.6523C13.8216 26.5872 13.8112 26.5208 13.793 26.4531C13.7747 26.362 13.7656 26.2891 13.7656 26.2344C13.7656 26.1797 13.763 26.1211 13.7578 26.0586C13.7422 26.0352 13.7148 26.0117 13.6758 25.9883C13.6393 25.9648 13.599 25.9414 13.5547 25.918C13.513 25.8919 13.4727 25.8659 13.4336 25.8398C13.3945 25.8112 13.3672 25.7812 13.3516 25.75C13.3307 25.7083 13.3164 25.6836 13.3086 25.6758C13.3034 25.6654 13.2982 25.6536 13.293 25.6406C13.293 25.6224 13.2982 25.5964 13.3086 25.5625C13.319 25.526 13.3385 25.5052 13.3672 25.5C13.4219 25.487 13.4779 25.4714 13.5352 25.4531C13.5924 25.4349 13.6354 25.4232 13.6641 25.418C13.6693 25.418 13.6823 25.4141 13.7031 25.4062C13.7266 25.3958 13.75 25.3854 13.7734 25.375C13.7995 25.362 13.8229 25.3503 13.8438 25.3398C13.8672 25.3268 13.8815 25.3164 13.8867 25.3086C13.9362 25.2956 13.9818 25.2812 14.0234 25.2656C14.0677 25.25 14.1107 25.2357 14.1523 25.2227C14.194 25.2096 14.237 25.1979 14.2812 25.1875C14.3281 25.1771 14.3776 25.1706 14.4297 25.168C14.4557 25.168 14.4779 25.1693 14.4961 25.1719C14.5143 25.1745 14.5234 25.1849 14.5234 25.2031C14.5339 25.2708 14.5404 25.3372 14.543 25.4023C14.5482 25.4648 14.5508 25.526 14.5508 25.5859C14.5508 25.6458 14.5482 25.707 14.543 25.7695C14.5404 25.8294 14.5339 25.888 14.5234 25.9453C14.5026 26 14.4896 26.0586 14.4844 26.1211C14.4792 26.1836 14.4766 26.2461 14.4766 26.3086L14.4805 26.5117L14.4688 26.7812C14.4792 26.8021 14.4857 26.8229 14.4883 26.8438C14.4935 26.8646 14.4961 26.8919 14.4961 26.9258C14.4961 26.9779 14.4948 27.0156 14.4922 27.0391C14.4922 27.0625 14.4883 27.0807 14.4805 27.0938L14.5078 27.3438C14.4974 27.3854 14.4805 27.4284 14.457 27.4727C14.4336 27.5143 14.4154 27.5612 14.4023 27.6133C14.4023 27.6419 14.4089 27.668 14.4219 27.6914C14.4349 27.7122 14.444 27.7409 14.4492 27.7773C14.4596 27.8789 14.4648 27.9766 14.4648 28.0703C14.4674 28.1641 14.4714 28.2617 14.4766 28.3633C14.4635 28.4232 14.4479 28.4766 14.4297 28.5234C14.4141 28.5677 14.4062 28.6133 14.4062 28.6602V28.7227C14.4089 28.7773 14.4128 28.8281 14.418 28.875C14.4232 28.9193 14.4284 28.9635 14.4336 29.0078C14.4414 29.0521 14.4479 29.099 14.4531 29.1484C14.4583 29.1953 14.4635 29.25 14.4688 29.3125C14.4688 29.3802 14.4648 29.4388 14.457 29.4883C14.4518 29.5378 14.4466 29.5977 14.4414 29.668C14.4388 29.6836 14.4349 29.7057 14.4297 29.7344C14.4271 29.763 14.4232 29.793 14.418 29.8242C14.4154 29.8529 14.4128 29.8802 14.4102 29.9062C14.4076 29.9323 14.4062 29.9505 14.4062 29.9609V29.9648C14.4089 29.9779 14.4141 30.0039 14.4219 30.043C14.4297 30.082 14.4375 30.1224 14.4453 30.1641C14.4531 30.2057 14.4609 30.2448 14.4688 30.2812C14.4766 30.3177 14.4805 30.3411 14.4805 30.3516L14.5078 30.4102H14.5156C14.5234 30.4102 14.5286 30.4141 14.5312 30.4219C14.5339 30.4297 14.5378 30.4349 14.543 30.4375C14.5534 30.4479 14.5599 30.4596 14.5625 30.4727C14.5651 30.4831 14.5703 30.4948 14.5781 30.5078C14.5885 30.5182 14.6029 30.5299 14.6211 30.543C14.6419 30.5534 14.6745 30.5638 14.7188 30.5742C14.7682 30.6055 14.806 30.6211 14.832 30.6211C14.8398 30.6211 14.8464 30.6211 14.8516 30.6211C14.8568 30.6211 14.8659 30.6185 14.8789 30.6133C14.8997 30.6185 14.9245 30.6224 14.9531 30.625C14.9818 30.6276 15.0117 30.6328 15.043 30.6406C15.0742 30.6458 15.1055 30.6549 15.1367 30.668C15.168 30.681 15.1953 30.6992 15.2188 30.7227C15.2318 30.7331 15.2396 30.7474 15.2422 30.7656C15.2448 30.7812 15.2461 30.8034 15.2461 30.832V30.9648C15.2461 30.9831 15.2435 31 15.2383 31.0156C15.2331 31.0312 15.2227 31.0417 15.207 31.0469C15.1862 31.0417 15.1641 31.0391 15.1406 31.0391C15.1198 31.0391 15.099 31.0391 15.0781 31.0391C15.0599 31.0391 15.0404 31.0378 15.0195 31.0352C14.9987 31.0352 14.9727 31.0326 14.9414 31.0273L14.8203 31.0117C14.8151 31.0117 14.8034 31.0104 14.7852 31.0078C14.7695 31.0078 14.7513 31.0065 14.7305 31.0039C14.7122 31.0039 14.694 31.0026 14.6758 31C14.6602 31 14.6497 31 14.6445 31L14.4531 30.9883C14.4505 30.9883 14.4479 30.987 14.4453 30.9844C14.4427 30.9844 14.4401 30.9844 14.4375 30.9844C14.4375 30.9818 14.4362 30.9805 14.4336 30.9805C14.3763 30.9831 14.3242 30.987 14.2773 30.9922C14.2331 30.9974 14.1901 31.0026 14.1484 31.0078C14.1094 31.0156 14.069 31.0221 14.0273 31.0273C13.9883 31.0352 13.944 31.0391 13.8945 31.0391C13.8346 31.0339 13.7695 31.0273 13.6992 31.0195C13.6315 31.0117 13.5677 31.0078 13.5078 31.0078L13.3008 31.0273ZM15.5195 28.9336C15.556 28.7956 15.6016 28.6641 15.6562 28.5391C15.7109 28.4115 15.7734 28.2812 15.8438 28.1484L15.9531 28.0195L16 27.9375C16.0078 27.9245 16.0169 27.9128 16.0273 27.9023C16.0352 27.8919 16.043 27.8828 16.0508 27.875C16.0586 27.8646 16.0664 27.8568 16.0742 27.8516L16.3047 27.6875C16.3177 27.6719 16.332 27.6615 16.3477 27.6562C16.3633 27.6484 16.3776 27.6432 16.3906 27.6406C16.4062 27.6354 16.4219 27.6315 16.4375 27.6289C16.4531 27.6237 16.4674 27.6146 16.4805 27.6016L16.5547 27.5273L16.6172 27.5H16.6758L16.8867 27.418C16.8971 27.4128 16.9115 27.4076 16.9297 27.4023C16.9505 27.3971 16.9714 27.3919 16.9922 27.3867C17.013 27.3815 17.0326 27.3776 17.0508 27.375C17.069 27.3724 17.082 27.3711 17.0898 27.3711H17.4883C17.5117 27.3607 17.5312 27.3555 17.5469 27.3555C17.5651 27.3529 17.5794 27.3516 17.5898 27.3516C17.6654 27.3516 17.7409 27.3646 17.8164 27.3906C17.8919 27.4141 17.9674 27.4362 18.043 27.457H18.1914C18.1966 27.457 18.2044 27.4622 18.2148 27.4727C18.2253 27.4805 18.237 27.4909 18.25 27.5039L18.293 27.5469C18.3581 27.5833 18.4219 27.6198 18.4844 27.6562C18.5469 27.6901 18.6094 27.7279 18.6719 27.7695C18.724 27.8112 18.7643 27.8581 18.793 27.9102C18.8242 27.9596 18.8594 28.0091 18.8984 28.0586C18.9036 28.0638 18.9128 28.0768 18.9258 28.0977C18.9414 28.1159 18.957 28.1367 18.9727 28.1602C18.9883 28.1836 19.0026 28.207 19.0156 28.2305C19.0312 28.2539 19.0417 28.2721 19.0469 28.2852L19.0703 28.332L19.2227 28.832C19.2305 28.8477 19.237 28.8659 19.2422 28.8867C19.2474 28.9076 19.2526 28.9284 19.2578 28.9492C19.263 28.9674 19.2669 28.9857 19.2695 29.0039C19.2721 29.0195 19.2734 29.0299 19.2734 29.0352V29.1602L19.25 29.2578V29.5391L19.0469 30.1367C18.9948 30.207 18.9401 30.2799 18.8828 30.3555C18.8255 30.4284 18.7682 30.4974 18.7109 30.5625C18.7109 30.5651 18.7057 30.5716 18.6953 30.582C18.6797 30.6029 18.6615 30.625 18.6406 30.6484C18.6198 30.6719 18.5964 30.694 18.5703 30.7148C18.5651 30.7201 18.5495 30.724 18.5234 30.7266C18.5 30.7292 18.474 30.737 18.4453 30.75L18.2109 30.8867C18.2057 30.8867 18.194 30.8893 18.1758 30.8945C18.1602 30.8971 18.1419 30.901 18.1211 30.9062C18.1029 30.9089 18.0846 30.9115 18.0664 30.9141C18.0482 30.9167 18.0352 30.918 18.0273 30.918C17.9805 30.9284 17.9414 30.9427 17.9102 30.9609C17.8815 30.9792 17.8398 30.9883 17.7852 30.9883L17.3867 31C17.3763 31 17.3542 31 17.3203 31C17.2865 30.9974 17.25 30.9961 17.2109 30.9961C17.1719 30.9935 17.1341 30.9922 17.0977 30.9922C17.0612 30.9896 17.0339 30.9883 17.0156 30.9883L16.9062 30.9648L16.6562 30.9453L16.6172 30.9258L16.2305 30.6562L16.1367 30.6133C16.0898 30.5872 16.0508 30.5495 16.0195 30.5C15.9883 30.4479 15.957 30.3984 15.9258 30.3516C15.8971 30.2995 15.8672 30.2526 15.8359 30.2109C15.8073 30.1693 15.7786 30.1302 15.75 30.0938C15.7266 30.0521 15.7005 30.0117 15.6719 29.9727C15.6458 29.9336 15.6211 29.8932 15.5977 29.8516C15.5768 29.8099 15.5586 29.7682 15.543 29.7266C15.5273 29.6823 15.5195 29.6341 15.5195 29.582L15.4883 29.2773L15.5195 28.9336ZM16.3242 29.4844C16.3451 29.5078 16.3594 29.5286 16.3672 29.5469C16.3776 29.5651 16.3841 29.582 16.3867 29.5977C16.3919 29.6133 16.3945 29.6302 16.3945 29.6484C16.3971 29.6667 16.401 29.6888 16.4062 29.7148C16.4271 29.8008 16.4609 29.8906 16.5078 29.9844C16.5547 30.0781 16.6042 30.1576 16.6562 30.2227L16.8047 30.3633C16.8568 30.4284 16.9062 30.4935 16.9531 30.5586C17 30.6211 17.0586 30.6667 17.1289 30.6953H17.2852C17.3424 30.6953 17.4036 30.6888 17.4688 30.6758C17.5339 30.6602 17.599 30.6471 17.6641 30.6367C17.7005 30.6367 17.7331 30.6354 17.7617 30.6328C17.7904 30.6276 17.8255 30.612 17.8672 30.5859L17.9141 30.5352C18.0391 30.4674 18.1471 30.3841 18.2383 30.2852L18.5078 29.8594L18.4961 29.4531C18.5091 29.4323 18.5169 29.4128 18.5195 29.3945C18.5221 29.3763 18.5234 29.349 18.5234 29.3125C18.5234 29.2682 18.513 29.2279 18.4922 29.1914C18.4714 29.1549 18.4609 29.1107 18.4609 29.0586L18.4961 28.9102C18.4883 28.8789 18.4805 28.8424 18.4727 28.8008C18.4648 28.7591 18.4557 28.7174 18.4453 28.6758C18.4375 28.6315 18.4271 28.5911 18.4141 28.5547C18.4036 28.5156 18.3893 28.4844 18.3711 28.4609L18.1719 28.2305C18.1641 28.2253 18.1536 28.2135 18.1406 28.1953C18.1302 28.1771 18.1185 28.1562 18.1055 28.1328C18.0951 28.1094 18.0846 28.0872 18.0742 28.0664C18.0664 28.0456 18.0625 28.0299 18.0625 28.0195L17.9453 27.9375C17.8984 27.8854 17.8516 27.8411 17.8047 27.8047C17.7578 27.7656 17.7018 27.7409 17.6367 27.7305L17.4453 27.707C17.3776 27.6966 17.3177 27.6849 17.2656 27.6719C17.2135 27.6562 17.1549 27.6484 17.0898 27.6484H17.0625L16.8242 27.7891L16.4453 28.2305C16.4349 28.2591 16.4258 28.2852 16.418 28.3086C16.4102 28.332 16.4062 28.3555 16.4062 28.3789L16.3867 28.5L16.3242 28.6602V28.7617C16.3242 28.7982 16.3294 28.832 16.3398 28.8633C16.3529 28.8945 16.3594 28.931 16.3594 28.9727C16.3594 28.9935 16.3581 29.0104 16.3555 29.0234C16.3529 29.0339 16.3424 29.0456 16.3242 29.0586V29.4844ZM20.8516 30.418C20.7943 30.332 20.7552 30.25 20.7344 30.1719C20.7135 30.0911 20.6966 30.0117 20.6836 29.9336C20.6706 29.8555 20.6523 29.7786 20.6289 29.7031C20.6081 29.625 20.5664 29.5456 20.5039 29.4648L20.4258 29.1367V28.9844C20.4258 28.9844 20.4219 28.9779 20.4141 28.9648C20.4062 28.9492 20.3958 28.9323 20.3828 28.9141C20.3724 28.8932 20.362 28.8737 20.3516 28.8555C20.3411 28.8372 20.3333 28.8242 20.3281 28.8164L20.25 28.7148V28.5117C20.25 28.5039 20.2448 28.4922 20.2344 28.4766C20.2266 28.4583 20.2161 28.4401 20.2031 28.4219C20.1927 28.401 20.1823 28.3828 20.1719 28.3672C20.1615 28.3516 20.1549 28.3411 20.1523 28.3359C20.1159 28.2734 20.0872 28.2031 20.0664 28.125C20.0456 28.0443 20.0208 27.9714 19.9922 27.9062C19.9766 27.8724 19.9622 27.8477 19.9492 27.832C19.9362 27.8138 19.918 27.8008 19.8945 27.793C19.8737 27.7826 19.8451 27.776 19.8086 27.7734C19.7747 27.7682 19.7279 27.7604 19.668 27.75C19.6263 27.7422 19.5911 27.7305 19.5625 27.7148C19.5339 27.6966 19.5195 27.6693 19.5195 27.6328C19.5195 27.5807 19.5299 27.5352 19.5508 27.4961C19.5742 27.457 19.5977 27.4193 19.6211 27.3828L19.8242 27.3438H19.9023C19.9779 27.3724 20.0573 27.3945 20.1406 27.4102C20.224 27.4258 20.3047 27.4336 20.3828 27.4336C20.4479 27.4336 20.5052 27.4245 20.5547 27.4062C20.6068 27.388 20.6628 27.3789 20.7227 27.3789C20.7305 27.3789 20.7435 27.3802 20.7617 27.3828C20.7826 27.3828 20.8047 27.3841 20.8281 27.3867C20.8516 27.3893 20.8724 27.3919 20.8906 27.3945C20.9089 27.3945 20.9206 27.3958 20.9258 27.3984C20.9388 27.4089 20.9531 27.418 20.9688 27.4258C20.987 27.431 21.0039 27.4388 21.0195 27.4492C21.0352 27.457 21.0482 27.4674 21.0586 27.4805C21.069 27.4909 21.0742 27.5065 21.0742 27.5273C21.0742 27.556 21.0677 27.5911 21.0547 27.6328C21.0417 27.6719 21.0234 27.7083 21 27.7422C20.9818 27.763 20.9518 27.7839 20.9102 27.8047C20.8685 27.8229 20.8411 27.8424 20.8281 27.8633V27.9453L20.8359 27.9922C20.8385 28.0234 20.8438 28.0599 20.8516 28.1016C20.8594 28.1432 20.8672 28.1862 20.875 28.2305C20.8828 28.2721 20.8906 28.3112 20.8984 28.3477C20.9089 28.3841 20.918 28.4102 20.9258 28.4258L21.0039 28.5117C21.0273 28.5612 21.0456 28.6146 21.0586 28.6719C21.0742 28.7266 21.0859 28.7826 21.0938 28.8398C21.1042 28.8945 21.1133 28.9505 21.1211 29.0078C21.1289 29.0651 21.1393 29.1185 21.1523 29.168L21.2812 29.3984C21.2891 29.4167 21.2956 29.4427 21.3008 29.4766C21.306 29.5104 21.3125 29.5443 21.3203 29.5781C21.3307 29.6094 21.3438 29.6367 21.3594 29.6602C21.375 29.6836 21.3971 29.6953 21.4258 29.6953C21.457 29.6953 21.4831 29.6836 21.5039 29.6602C21.5273 29.6367 21.5469 29.6094 21.5625 29.5781C21.5807 29.5469 21.5951 29.5156 21.6055 29.4844C21.6185 29.4531 21.6302 29.431 21.6406 29.418C21.6406 29.4128 21.651 29.3997 21.6719 29.3789C21.6927 29.3555 21.707 29.3411 21.7148 29.3359C21.7487 29.2943 21.7721 29.2461 21.7852 29.1914C21.7982 29.1341 21.8112 29.0781 21.8242 29.0234C21.8372 28.9661 21.8542 28.9115 21.875 28.8594C21.8984 28.8073 21.9375 28.7656 21.9922 28.7344L22 28.5742C22 28.5638 21.9987 28.5495 21.9961 28.5312C21.9961 28.5104 21.9961 28.4922 21.9961 28.4766C21.9961 28.4583 21.9948 28.4427 21.9922 28.4297C21.9922 28.4141 21.9922 28.4062 21.9922 28.4062L21.9375 28.2852C21.9271 28.2565 21.9206 28.2266 21.918 28.1953C21.918 28.1641 21.9154 28.1302 21.9102 28.0938C21.9049 28.0651 21.901 28.0378 21.8984 28.0117C21.8958 27.9831 21.8906 27.9544 21.8828 27.9258C21.862 27.8763 21.832 27.8464 21.793 27.8359C21.7539 27.8229 21.7135 27.8112 21.6719 27.8008C21.6302 27.7904 21.5898 27.7747 21.5508 27.7539C21.5117 27.7305 21.4805 27.6836 21.457 27.6133V27.5742C21.457 27.5508 21.4596 27.5247 21.4648 27.4961C21.4701 27.4648 21.4792 27.4453 21.4922 27.4375C21.5208 27.4219 21.5612 27.4128 21.6133 27.4102C21.6654 27.4076 21.7148 27.4062 21.7617 27.4062H21.8906C21.8932 27.4062 21.9036 27.4089 21.9219 27.4141C21.9401 27.4193 21.9609 27.4245 21.9844 27.4297C22.0104 27.4349 22.0365 27.4401 22.0625 27.4453C22.0885 27.4505 22.1094 27.4531 22.125 27.4531L22.4375 27.3789L22.7773 27.4336C22.8034 27.4336 22.8281 27.4297 22.8516 27.4219C22.875 27.4115 22.901 27.4062 22.9297 27.4062C22.9974 27.4062 23.0495 27.4193 23.0859 27.4453C23.1224 27.4714 23.1406 27.5182 23.1406 27.5859C23.1406 27.6562 23.1185 27.7044 23.0742 27.7305C23.0299 27.7565 22.9766 27.7747 22.9141 27.7852C22.8542 27.793 22.793 27.8008 22.7305 27.8086C22.668 27.8138 22.6198 27.832 22.5859 27.8633V27.918C22.5859 27.9466 22.5898 27.9701 22.5977 27.9883C22.6081 28.0039 22.6185 28.0195 22.6289 28.0352C22.6419 28.0508 22.6536 28.0677 22.6641 28.0859C22.6745 28.1016 22.6823 28.125 22.6875 28.1562V28.4062C22.6901 28.4167 22.7005 28.4544 22.7188 28.5195C22.737 28.582 22.7578 28.6576 22.7812 28.7461C22.8073 28.8346 22.8346 28.9297 22.8633 29.0312C22.8945 29.1302 22.9219 29.2227 22.9453 29.3086C22.9714 29.3945 22.9922 29.4661 23.0078 29.5234C23.026 29.5807 23.0365 29.6107 23.0391 29.6133C23.0573 29.6315 23.0703 29.6419 23.0781 29.6445C23.0859 29.6471 23.0951 29.6484 23.1055 29.6484C23.1237 29.6484 23.1393 29.6471 23.1523 29.6445C23.1654 29.6419 23.1823 29.6315 23.2031 29.6133C23.2031 29.6107 23.2044 29.6042 23.207 29.5938C23.2122 29.5833 23.2174 29.5729 23.2227 29.5625C23.2409 29.5078 23.2643 29.4557 23.293 29.4062C23.3242 29.3542 23.3555 29.3034 23.3867 29.2539C23.418 29.2018 23.4479 29.151 23.4766 29.1016C23.5052 29.0521 23.5286 29 23.5469 28.9453C23.5495 28.9427 23.5508 28.9349 23.5508 28.9219C23.5534 28.9089 23.556 28.8958 23.5586 28.8828C23.5612 28.8672 23.5625 28.8542 23.5625 28.8438C23.5651 28.8307 23.5664 28.8216 23.5664 28.8164C23.5898 28.7513 23.612 28.6979 23.6328 28.6562C23.6562 28.6146 23.6745 28.5664 23.6875 28.5117L23.707 28.3359C23.7253 28.3047 23.7448 28.2747 23.7656 28.2461C23.7891 28.2174 23.8099 28.1888 23.8281 28.1602C23.849 28.1289 23.8659 28.0977 23.8789 28.0664C23.8919 28.0352 23.8984 28.0039 23.8984 27.9727V27.9375C23.8932 27.8776 23.875 27.8333 23.8438 27.8047C23.8125 27.776 23.776 27.7552 23.7344 27.7422C23.6953 27.7266 23.6549 27.7135 23.6133 27.7031C23.5742 27.6927 23.5456 27.6745 23.5273 27.6484L23.5039 27.5586C23.5039 27.5117 23.5221 27.4766 23.5586 27.4531L23.5742 27.4336C23.5768 27.4206 23.5859 27.4115 23.6016 27.4062C23.6172 27.401 23.6549 27.3984 23.7148 27.3984C23.7383 27.3984 23.7565 27.3984 23.7695 27.3984C23.7852 27.3984 23.7995 27.3997 23.8125 27.4023C23.8281 27.4023 23.8438 27.4036 23.8594 27.4062C23.8776 27.4062 23.901 27.4076 23.9297 27.4102C24.0156 27.4102 24.0872 27.4076 24.1445 27.4023C24.2018 27.3945 24.2565 27.388 24.3086 27.3828H24.3242C24.3372 27.3828 24.3607 27.3854 24.3945 27.3906C24.431 27.3958 24.4518 27.3984 24.457 27.3984L24.668 27.3906C24.6888 27.3906 24.7083 27.3932 24.7266 27.3984C24.7448 27.401 24.7565 27.4049 24.7617 27.4102C24.7721 27.4232 24.7839 27.4323 24.7969 27.4375C24.8099 27.4401 24.819 27.4492 24.8242 27.4648V27.5117C24.8242 27.5638 24.8177 27.6029 24.8047 27.6289C24.7917 27.6549 24.7799 27.6745 24.7695 27.6875C24.7487 27.7083 24.7161 27.7266 24.6719 27.7422C24.6302 27.7578 24.5846 27.7747 24.5352 27.793C24.4857 27.8112 24.4388 27.8333 24.3945 27.8594C24.3503 27.8828 24.3177 27.9115 24.2969 27.9453C24.2448 28.0234 24.2005 28.099 24.1641 28.1719C24.1302 28.2422 24.0977 28.3138 24.0664 28.3867C24.0378 28.457 24.0078 28.5286 23.9766 28.6016C23.9453 28.6719 23.9076 28.7461 23.8633 28.8242C23.8424 28.8685 23.8203 28.9115 23.7969 28.9531C23.7734 28.9922 23.7513 29.0326 23.7305 29.0742C23.7122 29.1159 23.6966 29.1602 23.6836 29.207C23.6732 29.2539 23.668 29.3047 23.668 29.3594L23.6055 29.4336C23.6055 29.4492 23.6029 29.4701 23.5977 29.4961C23.5924 29.5221 23.5859 29.5495 23.5781 29.5781C23.5703 29.6068 23.5599 29.6341 23.5469 29.6602C23.5365 29.6836 23.5247 29.7005 23.5117 29.7109L23.457 29.8516L23.3281 30.1289C23.3021 30.181 23.2826 30.2253 23.2695 30.2617C23.2591 30.2982 23.2474 30.3333 23.2344 30.3672C23.2214 30.401 23.2057 30.4362 23.1875 30.4727C23.1693 30.5091 23.1419 30.5521 23.1055 30.6016C23.0794 30.6432 23.0612 30.6836 23.0508 30.7227C23.043 30.7617 23.0326 30.7969 23.0195 30.8281C23.0091 30.8568 22.9896 30.8802 22.9609 30.8984C22.9349 30.9167 22.8906 30.9258 22.8281 30.9258C22.7786 30.9258 22.7409 30.9219 22.7148 30.9141C22.6914 30.9062 22.6719 30.8945 22.6562 30.8789C22.6432 30.8633 22.6302 30.8438 22.6172 30.8203C22.6042 30.7943 22.5846 30.7643 22.5586 30.7305C22.5638 30.7096 22.5664 30.6914 22.5664 30.6758C22.5664 30.6576 22.5664 30.6393 22.5664 30.6211C22.5664 30.5612 22.5599 30.5039 22.5469 30.4492C22.5339 30.3945 22.5182 30.3411 22.5 30.2891C22.4818 30.237 22.4648 30.1849 22.4492 30.1328C22.4336 30.0781 22.4232 30.0208 22.418 29.9609L22.3906 29.668C22.3854 29.6419 22.3724 29.6016 22.3516 29.5469C22.3307 29.4896 22.306 29.4323 22.2773 29.375C22.2513 29.3177 22.224 29.2682 22.1953 29.2266C22.1667 29.1823 22.1419 29.1602 22.1211 29.1602C22.0898 29.1602 22.0612 29.1693 22.0352 29.1875C22.0117 29.2031 21.9974 29.2188 21.9922 29.2344C21.987 29.2422 21.9766 29.263 21.9609 29.2969C21.9453 29.3307 21.9375 29.3529 21.9375 29.3633C21.9089 29.4831 21.8711 29.5885 21.8242 29.6797C21.7799 29.7682 21.7318 29.862 21.6797 29.9609L21.6055 30.0664C21.6055 30.0716 21.6029 30.082 21.5977 30.0977C21.5951 30.1133 21.5911 30.1237 21.5859 30.1289C21.5859 30.1315 21.5846 30.1419 21.582 30.1602C21.5794 30.1758 21.5755 30.194 21.5703 30.2148C21.5677 30.2331 21.5638 30.2513 21.5586 30.2695C21.556 30.2852 21.5534 30.2943 21.5508 30.2969C21.5508 30.2995 21.5469 30.306 21.5391 30.3164C21.5339 30.3268 21.526 30.3385 21.5156 30.3516C21.5078 30.362 21.5 30.3724 21.4922 30.3828C21.4844 30.3906 21.4792 30.3958 21.4766 30.3984C21.4505 30.4583 21.4323 30.5234 21.4219 30.5938C21.4141 30.6641 21.3997 30.7292 21.3789 30.7891C21.3607 30.849 21.3294 30.8997 21.2852 30.9414C21.2409 30.9805 21.1719 31 21.0781 31C21.0339 31 20.9961 30.9935 20.9648 30.9805C20.9362 30.9674 20.918 30.931 20.9102 30.8711L20.8516 30.418ZM24.9297 29.2891C24.9297 29.276 24.9323 29.2513 24.9375 29.2148C24.9427 29.1758 24.9479 29.1354 24.9531 29.0938C24.9609 29.0495 24.9661 29.0078 24.9688 28.9688C24.974 28.9297 24.9766 28.9036 24.9766 28.8906C24.987 28.7656 25.0143 28.638 25.0586 28.5078C25.1055 28.3776 25.1641 28.2526 25.2344 28.1328C25.3047 28.0104 25.3854 27.8984 25.4766 27.7969C25.5703 27.6953 25.6719 27.6094 25.7812 27.5391C25.7839 27.5339 25.7969 27.5247 25.8203 27.5117C25.8464 27.4987 25.8737 27.4857 25.9023 27.4727C25.931 27.4596 25.9583 27.4466 25.9844 27.4336C26.0104 27.4206 26.026 27.4115 26.0312 27.4062C26.0495 27.3984 26.0729 27.3854 26.1016 27.3672C26.1328 27.3464 26.1641 27.3268 26.1953 27.3086C26.2266 27.2878 26.2578 27.2695 26.2891 27.2539C26.3203 27.2383 26.349 27.2305 26.375 27.2305C26.3984 27.2305 26.4167 27.2331 26.4297 27.2383C26.4453 27.2435 26.4635 27.2513 26.4844 27.2617C26.5286 27.2565 26.5703 27.2526 26.6094 27.25C26.651 27.2448 26.6927 27.2422 26.7344 27.2422C26.7786 27.2422 26.8203 27.2448 26.8594 27.25C26.8984 27.2526 26.9401 27.2565 26.9844 27.2617C26.9844 27.2617 26.9896 27.2643 27 27.2695C27.0104 27.2721 27.0221 27.276 27.0352 27.2812C27.0482 27.2865 27.0612 27.2917 27.0742 27.2969C27.0872 27.3021 27.0977 27.306 27.1055 27.3086C27.1133 27.3112 27.1289 27.319 27.1523 27.332C27.1758 27.3424 27.2018 27.3555 27.2305 27.3711C27.2591 27.3867 27.2865 27.401 27.3125 27.4141C27.3385 27.4245 27.3568 27.431 27.3672 27.4336C27.3672 27.4362 27.3763 27.4401 27.3945 27.4453C27.4128 27.4505 27.4245 27.4531 27.4297 27.4531L27.5859 27.5391L27.9375 27.8594C27.9479 27.8724 27.9635 27.9076 27.9844 27.9648C28.0078 28.0195 28.0299 28.0807 28.0508 28.1484C28.0742 28.2135 28.0938 28.276 28.1094 28.3359C28.1276 28.3958 28.1367 28.4349 28.1367 28.4531C28.1367 28.4896 28.1263 28.5195 28.1055 28.543C28.0846 28.5638 28.0599 28.582 28.0312 28.5977C28.0026 28.6107 27.9714 28.6211 27.9375 28.6289C27.9062 28.6341 27.8789 28.638 27.8555 28.6406H27.8398C27.8138 28.6432 27.7708 28.6458 27.7109 28.6484C27.6536 28.651 27.5924 28.6536 27.5273 28.6562C27.4648 28.6562 27.4049 28.6576 27.3477 28.6602C27.293 28.6602 27.2552 28.6602 27.2344 28.6602C27.2057 28.6732 27.1797 28.681 27.1562 28.6836C27.1354 28.6862 27.1133 28.6875 27.0898 28.6875L26.8125 28.6602C26.7604 28.6602 26.7057 28.6693 26.6484 28.6875C26.5938 28.7057 26.5404 28.7148 26.4883 28.7148C26.4544 28.7148 26.4206 28.7031 26.3867 28.6797C26.3555 28.6536 26.3203 28.6406 26.2812 28.6406C26.276 28.6406 26.2617 28.6471 26.2383 28.6602C26.2174 28.6706 26.2018 28.6758 26.1914 28.6758L25.8945 28.6562C25.8529 28.6562 25.8138 28.6641 25.7773 28.6797C25.7409 28.6953 25.6992 28.7227 25.6523 28.7617C25.6445 28.8294 25.6393 28.8893 25.6367 28.9414C25.6341 28.9909 25.6328 29.0469 25.6328 29.1094C25.6328 29.1641 25.6354 29.2083 25.6406 29.2422C25.6484 29.276 25.6589 29.3086 25.6719 29.3398C25.6849 29.3685 25.7005 29.3984 25.7188 29.4297C25.737 29.4583 25.7578 29.4948 25.7812 29.5391L25.8203 29.6133C25.888 29.7617 25.9753 29.8815 26.082 29.9727C26.1888 30.0638 26.3268 30.1354 26.4961 30.1875C26.4961 30.2005 26.5143 30.2135 26.5508 30.2266C26.5898 30.237 26.6328 30.2448 26.6797 30.25C26.7344 30.2604 26.7969 30.2669 26.8672 30.2695C26.9531 30.2695 27.0417 30.2643 27.1328 30.2539C27.224 30.2435 27.3125 30.2266 27.3984 30.2031C27.4844 30.1797 27.5651 30.1484 27.6406 30.1094C27.7188 30.0703 27.7852 30.0221 27.8398 29.9648H27.9023C27.9336 29.9648 27.9544 29.9701 27.9648 29.9805C27.9779 29.9883 27.9909 30.013 28.0039 30.0547C27.9961 30.1302 27.9844 30.1979 27.9688 30.2578C27.9557 30.3151 27.9362 30.3672 27.9102 30.4141C27.8867 30.4609 27.8555 30.5052 27.8164 30.5469C27.7773 30.5859 27.7266 30.6263 27.6641 30.668C27.6432 30.6836 27.6237 30.6953 27.6055 30.7031C27.5872 30.7083 27.5703 30.7135 27.5547 30.7188C27.5391 30.724 27.5221 30.7318 27.5039 30.7422C27.4883 30.7526 27.4701 30.7708 27.4492 30.7969L27.0312 31.0078L26.9844 31L26.6914 31.0469C26.4727 31.0469 26.276 31.0156 26.1016 30.9531C25.9271 30.8906 25.7708 30.8021 25.6328 30.6875C25.4974 30.5703 25.3789 30.431 25.2773 30.2695C25.1784 30.1081 25.0938 29.9297 25.0234 29.7344C25 29.6641 24.9857 29.5924 24.9805 29.5195C24.9753 29.444 24.9583 29.3672 24.9297 29.2891ZM25.6992 28.2227C25.6992 28.2357 25.7005 28.2552 25.7031 28.2812C25.7083 28.3073 25.7148 28.3333 25.7227 28.3594C25.7305 28.3854 25.7396 28.4089 25.75 28.4297C25.7604 28.4505 25.7708 28.4622 25.7812 28.4648H25.9023L26.4219 28.3828L26.7539 28.4102C26.8112 28.4102 26.862 28.4049 26.9062 28.3945C26.9531 28.3841 27.0039 28.3724 27.0586 28.3594C27.1081 28.3516 27.1497 28.3451 27.1836 28.3398C27.2201 28.332 27.2487 28.319 27.2695 28.3008C27.293 28.2826 27.3099 28.2591 27.3203 28.2305C27.3307 28.1992 27.3359 28.1562 27.3359 28.1016C27.3359 28.0104 27.3112 27.931 27.2617 27.8633C27.2122 27.7956 27.1497 27.7396 27.0742 27.6953C27.0013 27.6484 26.9206 27.6146 26.832 27.5938C26.7461 27.5703 26.6654 27.5586 26.5898 27.5586C26.5716 27.5586 26.5456 27.5638 26.5117 27.5742C26.4779 27.582 26.4388 27.5938 26.3945 27.6094C26.3529 27.6224 26.3086 27.638 26.2617 27.6562C26.2174 27.6719 26.1758 27.6901 26.1367 27.7109C26.1003 27.7292 26.0677 27.7474 26.0391 27.7656C26.0104 27.7812 25.9922 27.7956 25.9844 27.8086L25.9023 27.9844C25.8867 28.0026 25.8672 28.0195 25.8438 28.0352C25.8203 28.0508 25.7969 28.0677 25.7734 28.0859C25.7526 28.1042 25.7344 28.125 25.7188 28.1484C25.7057 28.1693 25.6992 28.194 25.6992 28.2227ZM28.5898 30.7617C28.5898 30.7409 28.6029 30.7266 28.6289 30.7188C28.6576 30.7083 28.6784 30.6966 28.6914 30.6836C28.7201 30.6523 28.7526 30.6302 28.7891 30.6172C28.8281 30.6042 28.8555 30.5938 28.8711 30.5859C28.8919 30.5729 28.9062 30.5573 28.9141 30.5391C28.9219 30.5182 28.9401 30.5026 28.9688 30.4922L29.0625 30.4609C29.0781 30.4609 29.0911 30.4492 29.1016 30.4258C29.112 30.4023 29.1185 30.3893 29.1211 30.3867C29.1185 30.3737 29.1172 30.3516 29.1172 30.3203C29.1172 30.2891 29.1172 30.2591 29.1172 30.2305C29.1172 30.194 29.1172 30.1615 29.1172 30.1328C29.1172 30.1016 29.1185 30.0755 29.1211 30.0547L29.1445 29.9375V29.3359C29.1445 29.3307 29.1458 29.319 29.1484 29.3008C29.151 29.2826 29.1536 29.263 29.1562 29.2422C29.1589 29.2214 29.1615 29.2018 29.1641 29.1836C29.1667 29.1654 29.1693 29.1536 29.1719 29.1484V29.1211C29.1693 29.1055 29.1667 29.082 29.1641 29.0508C29.1615 29.0169 29.1589 28.9844 29.1562 28.9531C29.1536 28.9193 29.151 28.8893 29.1484 28.8633C29.1458 28.8372 29.1445 28.8216 29.1445 28.8164C29.1419 28.8086 29.1393 28.7956 29.1367 28.7773C29.1341 28.7591 29.1315 28.7396 29.1289 28.7188C29.1263 28.6979 29.1237 28.6784 29.1211 28.6602C29.1211 28.6419 29.1211 28.6289 29.1211 28.6211C29.1133 28.5846 29.1003 28.5495 29.082 28.5156C29.0638 28.4818 29.043 28.4505 29.0195 28.4219C28.9961 28.3906 28.9714 28.3607 28.9453 28.332C28.9193 28.3008 28.8945 28.2708 28.8711 28.2422C28.8685 28.2422 28.8594 28.2331 28.8438 28.2148C28.8281 28.194 28.8203 28.181 28.8203 28.1758L28.5898 27.9609L28.7773 27.7695C28.7826 27.7669 28.793 27.7617 28.8086 27.7539C28.8268 27.7461 28.8451 27.7383 28.8633 27.7305C28.8841 27.7201 28.9036 27.7109 28.9219 27.7031C28.9427 27.6953 28.9583 27.6901 28.9688 27.6875C28.974 27.6823 28.9844 27.6784 29 27.6758C29.0182 27.6706 29.0365 27.6667 29.0547 27.6641C29.0755 27.6615 29.0938 27.6602 29.1094 27.6602C29.1276 27.6576 29.1393 27.6562 29.1445 27.6562C29.194 27.6406 29.2383 27.6198 29.2773 27.5938C29.319 27.5651 29.3594 27.5378 29.3984 27.5117C29.4375 27.4831 29.4766 27.4583 29.5156 27.4375C29.5573 27.4167 29.6042 27.4062 29.6562 27.4062H29.7188C29.7214 27.4089 29.7357 27.4232 29.7617 27.4492C29.7878 27.4727 29.8073 27.4896 29.8203 27.5C29.8385 27.5286 29.8477 27.5651 29.8477 27.6094C29.8477 27.651 29.849 27.6927 29.8516 27.7344C29.8542 27.7734 29.8633 27.8073 29.8789 27.8359C29.8945 27.8646 29.9284 27.8789 29.9805 27.8789C29.9883 27.8789 29.9961 27.8789 30.0039 27.8789C30.0143 27.8789 30.0195 27.8763 30.0195 27.8711C30.0299 27.8685 30.0443 27.8633 30.0625 27.8555C30.0807 27.8451 30.099 27.8333 30.1172 27.8203C30.138 27.8073 30.1562 27.7943 30.1719 27.7812C30.1901 27.7682 30.2031 27.7578 30.2109 27.75L30.3711 27.6289C30.3763 27.6237 30.3932 27.612 30.4219 27.5938C30.4505 27.5729 30.4701 27.5573 30.4805 27.5469C30.4831 27.5469 30.4935 27.5469 30.5117 27.5469C30.5299 27.5443 30.5482 27.543 30.5664 27.543C30.5872 27.5404 30.6068 27.5378 30.625 27.5352C30.6432 27.5326 30.6562 27.5299 30.6641 27.5273C30.6667 27.5273 30.6745 27.5247 30.6875 27.5195C30.7031 27.5143 30.7188 27.5091 30.7344 27.5039C30.7526 27.4987 30.7682 27.4935 30.7812 27.4883C30.7943 27.4831 30.8021 27.4805 30.8047 27.4805H30.8477C30.9076 27.4805 30.9557 27.4987 30.9922 27.5352C31.0312 27.5716 31.0664 27.612 31.0977 27.6562C31.1159 27.6797 31.1263 27.7135 31.1289 27.7578C31.1341 27.7995 31.1432 27.8307 31.1562 27.8516C31.1562 27.8594 31.1602 27.8672 31.168 27.875L31.1836 27.8906C31.1836 28.0156 31.1654 28.1276 31.1289 28.2266C31.0951 28.3229 31.0365 28.401 30.9531 28.4609C30.9297 28.4661 30.9023 28.4714 30.8711 28.4766C30.8398 28.4792 30.8138 28.4805 30.793 28.4805C30.7383 28.4805 30.6979 28.4779 30.6719 28.4727C30.6458 28.4648 30.6263 28.4544 30.6133 28.4414C30.6003 28.4284 30.5885 28.4115 30.5781 28.3906C30.5703 28.3698 30.556 28.3451 30.5352 28.3164C30.5169 28.293 30.4948 28.2747 30.4688 28.2617C30.4453 28.2461 30.4219 28.2357 30.3984 28.2305C30.375 28.2227 30.3529 28.2174 30.332 28.2148C30.3138 28.2122 30.3021 28.2109 30.2969 28.2109L30.1289 28.1836L29.9883 28.2227L29.9414 28.2852C29.9284 28.2878 29.9102 28.3008 29.8867 28.3242C29.8633 28.3451 29.8398 28.3698 29.8164 28.3984C29.7956 28.4245 29.7773 28.4531 29.7617 28.4844C29.7461 28.513 29.7383 28.5365 29.7383 28.5547L29.7188 28.8359L29.7383 28.9453V29.1484C29.7383 29.1536 29.7396 29.1693 29.7422 29.1953C29.7474 29.2188 29.7526 29.237 29.7578 29.25L29.7305 29.6016L29.7578 29.7344C29.7578 29.7526 29.7526 29.7708 29.7422 29.7891C29.7344 29.8073 29.7305 29.8307 29.7305 29.8594L29.7578 29.9922L29.7305 30.1367C29.7305 30.1393 29.7305 30.1432 29.7305 30.1484C29.7305 30.1536 29.7331 30.1562 29.7383 30.1562C29.7409 30.1719 29.7487 30.194 29.7617 30.2227C29.7773 30.2513 29.793 30.2812 29.8086 30.3125C29.8268 30.3438 29.8424 30.3737 29.8555 30.4023C29.8711 30.4284 29.8815 30.4479 29.8867 30.4609C29.8867 30.4635 29.8893 30.4688 29.8945 30.4766C29.8997 30.4844 29.9062 30.4883 29.9141 30.4883C29.9375 30.5013 29.9596 30.5182 29.9805 30.5391C30.0039 30.5599 30.0312 30.5755 30.0625 30.5859C30.0807 30.5938 30.1042 30.6016 30.1328 30.6094C30.1615 30.6146 30.1914 30.6211 30.2227 30.6289C30.2565 30.6367 30.2891 30.6458 30.3203 30.6562C30.3542 30.6667 30.3854 30.6797 30.4141 30.6953C30.4297 30.7161 30.444 30.7409 30.457 30.7695C30.4727 30.7982 30.4805 30.8294 30.4805 30.8633C30.4805 30.8919 30.4753 30.9128 30.4648 30.9258C30.457 30.9388 30.444 30.9518 30.4258 30.9648C30.4102 30.9753 30.3841 30.9805 30.3477 30.9805L30.2227 30.9922C30.1784 30.9974 30.138 31 30.1016 31C30.0677 31 30.0391 31 30.0156 31C29.9948 31 29.9714 30.9974 29.9453 30.9922C29.9219 30.9844 29.8958 30.9805 29.8672 30.9805C29.7943 30.9805 29.7253 30.9896 29.6602 31.0078C29.5951 31.0286 29.5286 31.0391 29.4609 31.0391L29.2852 30.9805L29.0352 31.0391H28.9688L28.9141 31C28.9089 31 28.8945 30.9987 28.8711 30.9961C28.8477 30.9909 28.8138 30.9857 28.7695 30.9805C28.7591 30.9805 28.7487 30.9753 28.7383 30.9648C28.7305 30.9622 28.7174 30.9583 28.6992 30.9531C28.6836 30.9479 28.6576 30.9362 28.6211 30.918C28.6003 30.8893 28.5898 30.862 28.5898 30.8359V30.8242V30.7617ZM31.7773 32.8438C31.7773 32.8203 31.7773 32.7995 31.7773 32.7812C31.7799 32.763 31.7878 32.7396 31.8008 32.7109C31.8138 32.651 31.8411 32.6016 31.8828 32.5625C31.9271 32.5234 31.9935 32.4909 32.082 32.4648C32.0898 32.4622 32.1029 32.4583 32.1211 32.4531C32.1393 32.4505 32.1576 32.4479 32.1758 32.4453C32.194 32.4427 32.2096 32.4401 32.2227 32.4375C32.2383 32.4375 32.2474 32.4375 32.25 32.4375L32.3945 32.4648L32.4805 32.4375C32.4883 32.4375 32.5 32.4362 32.5156 32.4336C32.5312 32.4336 32.5534 32.4336 32.582 32.4336C32.6289 32.4336 32.6602 32.4323 32.6758 32.4297C32.694 32.4271 32.7083 32.4193 32.7188 32.4062C32.7396 32.375 32.7565 32.3477 32.7695 32.3242C32.7826 32.3008 32.793 32.2773 32.8008 32.2539C32.8112 32.2331 32.819 32.2096 32.8242 32.1836C32.832 32.1602 32.8398 32.1302 32.8477 32.0938C32.8477 32.0911 32.849 32.082 32.8516 32.0664C32.8542 32.0534 32.8568 32.0378 32.8594 32.0195C32.862 32.0013 32.8646 31.9844 32.8672 31.9688C32.8698 31.9531 32.8724 31.9414 32.875 31.9336C32.875 31.9232 32.8815 31.9036 32.8945 31.875C32.9076 31.8464 32.9219 31.8164 32.9375 31.7852C32.9531 31.7539 32.9674 31.724 32.9805 31.6953C32.9961 31.6693 33.0078 31.6497 33.0156 31.6367L32.9883 31.4727C33.0169 31.4258 33.0391 31.3828 33.0547 31.3438C33.0703 31.3047 33.0781 31.2578 33.0781 31.2031C33.0781 31.1953 33.0768 31.1849 33.0742 31.1719C33.0716 31.1615 33.0703 31.1536 33.0703 31.1484C33.0703 31.1276 33.069 31.1016 33.0664 31.0703C33.0664 31.0417 33.0651 31.0143 33.0625 30.9883C33.0599 30.9596 33.0573 30.9349 33.0547 30.9141C33.0521 30.8932 33.0508 30.8815 33.0508 30.8789C33.0508 30.8711 33.0456 30.8555 33.0352 30.832C33.0247 30.806 33.013 30.7786 33 30.75C32.9896 30.7214 32.9779 30.694 32.9648 30.668C32.9544 30.6419 32.9492 30.6237 32.9492 30.6133C32.9466 30.6081 32.9414 30.5924 32.9336 30.5664C32.9258 30.5404 32.9167 30.513 32.9062 30.4844C32.8984 30.4531 32.8906 30.4245 32.8828 30.3984C32.8776 30.3724 32.875 30.3568 32.875 30.3516L32.75 30.1406C32.75 30.138 32.7487 30.1276 32.7461 30.1094C32.7435 30.0911 32.7409 30.0716 32.7383 30.0508C32.7357 30.0299 32.7318 30.0104 32.7266 29.9922C32.724 29.9714 32.7214 29.9583 32.7188 29.9531C32.7188 29.9297 32.7161 29.901 32.7109 29.8672C32.7057 29.8307 32.7018 29.8125 32.6992 29.8125C32.6966 29.8047 32.6888 29.7943 32.6758 29.7812C32.6654 29.7682 32.6523 29.7552 32.6367 29.7422C32.6237 29.7292 32.6107 29.7174 32.5977 29.707C32.5846 29.6966 32.5781 29.6901 32.5781 29.6875L32.5234 29.5469L32.3945 29.3633L32.25 28.9922C32.2474 28.987 32.2396 28.9727 32.2266 28.9492C32.2161 28.9232 32.2109 28.9089 32.2109 28.9062C32.2057 28.901 32.1979 28.8945 32.1875 28.8867C32.1771 28.8763 32.1719 28.8685 32.1719 28.8633C32.1693 28.8607 32.1667 28.849 32.1641 28.8281C32.1615 28.8073 32.1589 28.7852 32.1562 28.7617C32.1562 28.7383 32.1549 28.7174 32.1523 28.6992C32.1523 28.6784 32.1523 28.6654 32.1523 28.6602C32.1419 28.6185 32.1263 28.5742 32.1055 28.5273C32.0846 28.4779 32.0625 28.4297 32.0391 28.3828C32.0156 28.3333 31.9909 28.2852 31.9648 28.2383C31.9414 28.1914 31.9206 28.1484 31.9023 28.1094C31.9023 28.1042 31.8997 28.0911 31.8945 28.0703C31.8893 28.0469 31.8841 28.0326 31.8789 28.0273C31.8789 28.0195 31.8724 28.0091 31.8594 27.9961C31.849 27.9805 31.8372 27.9701 31.8242 27.9648C31.7487 27.9049 31.668 27.8581 31.582 27.8242C31.4987 27.7904 31.4115 27.7513 31.3203 27.707L31.2852 27.6562C31.2747 27.6354 31.2591 27.6198 31.2383 27.6094C31.2148 27.599 31.2031 27.5846 31.2031 27.5664C31.2031 27.4753 31.2201 27.4167 31.2539 27.3906C31.2852 27.3646 31.3255 27.3516 31.375 27.3516C31.4141 27.3516 31.4518 27.3581 31.4883 27.3711C31.5273 27.3841 31.5677 27.4023 31.6094 27.4258C31.6172 27.4258 31.6328 27.4245 31.6562 27.4219C31.6797 27.4193 31.707 27.418 31.7383 27.418C31.7669 27.418 31.7943 27.4193 31.8203 27.4219C31.849 27.4245 31.8685 27.4258 31.8789 27.4258L31.9805 27.4648H32.082C32.0846 27.4648 32.0951 27.4635 32.1133 27.4609C32.1341 27.4557 32.1549 27.4518 32.1758 27.4492C32.1992 27.444 32.2201 27.4401 32.2383 27.4375C32.2565 27.4323 32.2682 27.4284 32.2734 27.4258C32.2891 27.418 32.3099 27.4115 32.3359 27.4062C32.3646 27.3984 32.3919 27.3919 32.418 27.3867C32.444 27.3815 32.4661 27.3776 32.4844 27.375C32.5052 27.3724 32.5182 27.3711 32.5234 27.3711H32.6992L32.8047 27.3516C32.8281 27.3516 32.8555 27.3568 32.8867 27.3672C32.9206 27.375 32.9505 27.3867 32.9766 27.4023C33.0052 27.418 33.0286 27.4362 33.0469 27.457C33.0677 27.4753 33.0781 27.4935 33.0781 27.5117C33.0781 27.5326 33.0755 27.5638 33.0703 27.6055C33.0651 27.6445 33.0534 27.6745 33.0352 27.6953C32.9935 27.7396 32.9492 27.7708 32.9023 27.7891C32.8581 27.8073 32.8255 27.819 32.8047 27.8242L32.7383 27.8438C32.7201 27.8516 32.6992 27.8542 32.6758 27.8516C32.6549 27.8464 32.6354 27.8529 32.6172 27.8711C32.6198 27.8919 32.625 27.918 32.6328 27.9492C32.6406 27.9779 32.6497 28.0065 32.6602 28.0352C32.6706 28.0638 32.6797 28.0898 32.6875 28.1133C32.6953 28.1341 32.6992 28.1458 32.6992 28.1484C32.7018 28.1745 32.7083 28.1979 32.7188 28.2188C32.7318 28.2396 32.7448 28.2604 32.7578 28.2812C32.7708 28.3021 32.7839 28.3229 32.7969 28.3438C32.8099 28.3646 32.8203 28.3867 32.8281 28.4102L32.875 28.6602C32.8802 28.6966 32.8932 28.7318 32.9141 28.7656C32.9349 28.7969 32.957 28.8281 32.9805 28.8594C33.0039 28.888 33.0273 28.9193 33.0508 28.9531C33.0742 28.9844 33.0898 29.0182 33.0977 29.0547C33.0977 29.0573 33.0977 29.069 33.0977 29.0898C33.1003 29.1107 33.1016 29.1328 33.1016 29.1562C33.1042 29.1797 33.1068 29.2018 33.1094 29.2227C33.112 29.2435 33.1146 29.2552 33.1172 29.2578C33.1172 29.2604 33.125 29.2734 33.1406 29.2969C33.1562 29.3203 33.1667 29.3333 33.1719 29.3359C33.1745 29.3411 33.181 29.3555 33.1914 29.3789C33.2018 29.4023 33.2109 29.418 33.2188 29.4258L33.2773 29.5469C33.2826 29.5651 33.2917 29.5885 33.3047 29.6172C33.3177 29.6432 33.3294 29.6562 33.3398 29.6562C33.3581 29.6849 33.3776 29.7057 33.3984 29.7188C33.4219 29.7292 33.4427 29.7344 33.4609 29.7344C33.474 29.7344 33.4922 29.7292 33.5156 29.7188C33.5391 29.7057 33.5573 29.6849 33.5703 29.6562C33.5781 29.6458 33.5872 29.6354 33.5977 29.625C33.6185 29.6042 33.6341 29.5898 33.6445 29.582L33.6523 29.5586C33.6549 29.5534 33.6576 29.5482 33.6602 29.543C33.6628 29.5378 33.6641 29.5326 33.6641 29.5273C33.6953 29.4492 33.7253 29.3698 33.7539 29.2891C33.7826 29.2083 33.8112 29.1237 33.8398 29.0352C33.8398 29.0273 33.8424 29.0104 33.8477 28.9844C33.8529 28.9557 33.862 28.9362 33.875 28.9258C33.875 28.9232 33.875 28.9154 33.875 28.9023C33.8776 28.8893 33.8789 28.875 33.8789 28.8594C33.8815 28.8411 33.8841 28.8255 33.8867 28.8125C33.8893 28.7969 33.8919 28.7878 33.8945 28.7852L33.9531 28.6211C33.9557 28.6185 33.9583 28.6107 33.9609 28.5977C33.9635 28.5846 33.9661 28.5716 33.9688 28.5586C33.9714 28.543 33.9727 28.5299 33.9727 28.5195C33.9753 28.5065 33.9766 28.4974 33.9766 28.4922C33.9844 28.4661 33.9961 28.4401 34.0117 28.4141C34.0299 28.388 34.0469 28.3633 34.0625 28.3398C34.0781 28.3164 34.0924 28.293 34.1055 28.2695C34.1185 28.2435 34.125 28.2161 34.125 28.1875C34.1198 28.1771 34.112 28.1628 34.1016 28.1445C34.0938 28.1237 34.0872 28.112 34.082 28.1094V27.9453C34.082 27.9401 34.0716 27.9258 34.0508 27.9023C34.0326 27.8789 34.0182 27.8646 34.0078 27.8594C33.9974 27.8542 33.9818 27.8477 33.9609 27.8398C33.9427 27.8294 33.9219 27.8203 33.8984 27.8125C33.875 27.8047 33.8516 27.7982 33.8281 27.793C33.8073 27.7852 33.7904 27.7799 33.7773 27.7773C33.7513 27.7773 33.7318 27.7734 33.7188 27.7656C33.7083 27.7552 33.7018 27.75 33.6992 27.75L33.5703 27.6562C33.5573 27.6198 33.5508 27.5898 33.5508 27.5664C33.5508 27.5326 33.5573 27.5026 33.5703 27.4766C33.5833 27.4479 33.599 27.4193 33.6172 27.3906C33.651 27.3724 33.6823 27.3607 33.7109 27.3555C33.7422 27.3477 33.7695 27.3438 33.793 27.3438C33.8164 27.3411 33.8385 27.3385 33.8594 27.3359C33.8802 27.3333 33.8984 27.3268 33.9141 27.3164L34.0078 27.3047C34.013 27.3047 34.0273 27.306 34.0508 27.3086C34.0768 27.3086 34.1042 27.3099 34.1328 27.3125C34.1615 27.3151 34.1875 27.3177 34.2109 27.3203C34.237 27.3203 34.2526 27.3216 34.2578 27.3242L34.3867 27.3516C34.4466 27.3516 34.5 27.3424 34.5469 27.3242C34.5964 27.306 34.651 27.2878 34.7109 27.2695H34.8008C34.8008 27.2643 34.8125 27.2604 34.8359 27.2578C34.8594 27.2526 34.8763 27.25 34.8867 27.25C34.8867 27.2448 34.8893 27.2422 34.8945 27.2422C34.9023 27.2422 34.9089 27.2422 34.9141 27.2422C34.9375 27.2422 34.9688 27.2474 35.0078 27.2578C35.0495 27.2682 35.0898 27.2826 35.1289 27.3008C35.168 27.319 35.2018 27.3398 35.2305 27.3633C35.2591 27.3867 35.2734 27.4115 35.2734 27.4375C35.2734 27.4688 35.2643 27.4909 35.2461 27.5039C35.2279 27.5169 35.2096 27.5339 35.1914 27.5547L35.043 27.6758C35.0117 27.7044 34.9805 27.7266 34.9492 27.7422C34.918 27.7552 34.8854 27.7656 34.8516 27.7734C34.8203 27.7812 34.7865 27.7878 34.75 27.793C34.7135 27.7982 34.6758 27.806 34.6367 27.8164C34.5924 27.8841 34.5547 27.9531 34.5234 28.0234C34.4948 28.0938 34.4635 28.1628 34.4297 28.2305C34.4297 28.2435 34.4271 28.2604 34.4219 28.2812C34.4167 28.2995 34.4115 28.3112 34.4062 28.3164C34.4062 28.319 34.4049 28.3268 34.4023 28.3398C34.4023 28.3503 34.401 28.3633 34.3984 28.3789C34.3958 28.3919 34.3932 28.4049 34.3906 28.418C34.3906 28.431 34.3893 28.4375 34.3867 28.4375C34.3867 28.4427 34.3815 28.4518 34.3711 28.4648C34.3633 28.4779 34.3542 28.4935 34.3438 28.5117C34.3333 28.5273 34.3229 28.543 34.3125 28.5586C34.3047 28.5716 34.3008 28.5794 34.3008 28.582V28.7852C34.2982 28.7878 34.293 28.7969 34.2852 28.8125C34.2773 28.8255 34.2682 28.8411 34.2578 28.8594C34.25 28.875 34.2409 28.8893 34.2305 28.9023C34.2227 28.9154 34.2161 28.9232 34.2109 28.9258C34.1745 28.9935 34.1315 29.0664 34.082 29.1445C34.0326 29.2227 33.9974 29.3034 33.9766 29.3867V29.5273C33.9766 29.5326 33.9714 29.5469 33.9609 29.5703C33.9531 29.5911 33.9466 29.6016 33.9414 29.6016C33.9128 29.6562 33.8945 29.707 33.8867 29.7539C33.8789 29.8008 33.8633 29.8464 33.8398 29.8906L33.7266 30.1211C33.7161 30.1732 33.7096 30.2266 33.707 30.2812C33.7044 30.3359 33.7031 30.3919 33.7031 30.4492C33.7031 30.5039 33.7018 30.5586 33.6992 30.6133C33.6966 30.668 33.6914 30.7227 33.6836 30.7773C33.6784 30.8424 33.6576 30.9062 33.6211 30.9688C33.5846 31.0312 33.5521 31.0911 33.5234 31.1484C33.5182 31.1536 33.5104 31.1602 33.5 31.168C33.4922 31.1784 33.4883 31.1849 33.4883 31.1875C33.4779 31.2031 33.4674 31.2279 33.457 31.2617C33.4518 31.2773 33.4466 31.2943 33.4414 31.3125C33.4388 31.3281 33.4362 31.3529 33.4336 31.3867C33.431 31.4206 33.4284 31.4557 33.4258 31.4922C33.4258 31.5286 33.4245 31.5625 33.4219 31.5938C33.4219 31.6276 33.4219 31.651 33.4219 31.6641C33.3958 31.6849 33.3763 31.7148 33.3633 31.7539C33.3529 31.793 33.3438 31.8359 33.3359 31.8828C33.3307 31.9297 33.3255 31.9753 33.3203 32.0195C33.3177 32.0664 33.3112 32.1055 33.3008 32.1367L33.1914 32.2773C33.1862 32.2826 33.181 32.2995 33.1758 32.3281C33.1732 32.3594 33.1719 32.3789 33.1719 32.3867C33.1641 32.3945 33.1549 32.4076 33.1445 32.4258C33.1341 32.4414 33.1211 32.4635 33.1055 32.4922C33.0898 32.5208 33.0716 32.5599 33.0508 32.6094C33.0508 32.612 33.0482 32.6198 33.043 32.6328C33.0378 32.6484 33.0312 32.6641 33.0234 32.6797C33.0156 32.6979 33.0078 32.7148 33 32.7305C32.9948 32.7461 32.9909 32.7552 32.9883 32.7578C32.9779 32.7943 32.9622 32.8177 32.9414 32.8281C32.9232 32.8385 32.901 32.8555 32.875 32.8789C32.8594 32.8919 32.8477 32.9023 32.8398 32.9102C32.832 32.9206 32.8255 32.9297 32.8203 32.9375C32.8151 32.9453 32.8086 32.9531 32.8008 32.9609C32.7956 32.9714 32.7865 32.9844 32.7734 33C32.737 33.0469 32.6953 33.0742 32.6484 33.082C32.6016 33.0924 32.5521 33.1055 32.5 33.1211L32.4219 33.1836C32.3906 33.194 32.3607 33.1992 32.332 33.1992C32.3034 33.2018 32.276 33.2031 32.25 33.2031C32.2005 33.2031 32.1484 33.194 32.0938 33.1758C32.0391 33.1602 31.9883 33.1367 31.9414 33.1055C31.8945 33.0742 31.8555 33.0365 31.8242 32.9922C31.793 32.9479 31.7773 32.8984 31.7773 32.8438Z" fill="#F9F9F9"/>
</svg>
